<?xml version="1.0" encoding="iso-8859-1"?>
<!-- Generator: Adobe Illustrator 19.0.0, SVG Export Plug-In . SVG Version: 6.00 Build 0)  -->
<svg xmlns="http://www.w3.org/2000/svg" xmlns:xlink="http://www.w3.org/1999/xlink" version="1.1" id="Layer_1" x="0px" y="0px" viewBox="0 0 512.001 512.001" style="enable-background:new 0 0 512.001 512.001;" xml:space="preserve" width="512px" height="512px">
<g>
	<g>
		<path d="M253.468,432.168l-5.806,3.352l-33.768,19.496l-19.497-33.769l-1.373-2.376c-12.175,1.417-24.782,2.165-37.727,2.165    c-64.156,0-120.118-18.188-155.296-46.81v44.413c0,11.226,5.375,33.128,41.372,53.699c30.115,17.208,70.574,26.685,113.923,26.685    s83.809-9.477,113.923-26.685c9.503-5.429,16.852-10.951,22.552-16.345C278.02,449.824,265.13,441.84,253.468,432.168z" fill="#FFFFFF"/>
	</g>
</g>
<g>
	<g>
		<path d="M194.923,330.887c-1.397-8.286-2.134-16.701-2.272-25.194c-12.06,1.388-24.542,2.124-37.355,2.124    c-64.156,0-120.118-18.188-155.296-46.81v32.78v7.87h0.001c0,11.227,5.375,33.128,41.372,53.699    c30.115,17.208,70.574,26.685,113.923,26.685c5.453,0,10.859-0.151,16.206-0.448L155.4,353.705l33.772-19.497L194.923,330.887z" fill="#FFFFFF"/>
	</g>
</g>
<g>
	<g>
		<path d="M174.898,218.384l14.146-24.501c-10.917,1.153-22.193,1.756-33.748,1.756c-65.712,0-122.42-19.42-155.296-49.384v30.553    v11.633h0.001c0,11.225,5.375,33.128,41.372,53.699c30.115,17.208,70.574,26.685,113.923,26.685    c9.088,0,18.037-0.441,26.803-1.258L155.4,252.153L174.898,218.384z" fill="#FFFFFF"/>
	</g>
</g>
<g>
	<g>
		<path d="M263.315,37.314c-28.533-15.693-66.896-24.336-108.019-24.336c-41.126,0-79.487,8.642-108.021,24.336    C22.786,50.782,8.741,68.096,8.741,84.81s14.046,34.028,38.534,47.496c28.533,15.693,66.896,24.336,108.021,24.336    c41.125,0,79.486-8.642,108.019-24.336c24.49-13.469,38.534-30.782,38.534-47.496S287.804,50.782,263.315,37.314z" fill="#FFFFFF"/>
	</g>
</g>
<g>
	<g>
		<path d="M489.081,302.931c0-16.482-3.117-32.25-8.787-46.746l31.708-18.305l-19.497-33.769l-31.762,18.336    c-19.756-24.599-48.343-41.819-80.909-46.788v-36.6h-38.994v36.6c-32.567,4.969-61.153,22.189-80.911,46.788l-31.762-18.336    l-19.497,33.769l31.708,18.305c-5.668,14.498-8.787,30.265-8.787,46.746c0,16.482,3.117,32.248,8.787,46.745l-31.708,18.305    l19.497,33.769l31.761-18.336c19.758,24.599,48.344,41.819,80.912,46.787v36.601h38.994v-36.601    c32.568-4.968,61.153-22.186,80.911-46.785l31.761,18.335L512,367.981l-31.706-18.305    C485.962,335.179,489.081,319.413,489.081,302.931z M360.336,355.307c-28.882,0-52.377-23.495-52.377-52.376    c0-28.882,23.495-52.377,52.377-52.377c28.88,0,52.376,23.495,52.376,52.377C412.711,331.81,389.215,355.307,360.336,355.307z" fill="#FFFFFF"/>
	</g>
</g>
<g>
</g>
<g>
</g>
<g>
</g>
<g>
</g>
<g>
</g>
<g>
</g>
<g>
</g>
<g>
</g>
<g>
</g>
<g>
</g>
<g>
</g>
<g>
</g>
<g>
</g>
<g>
</g>
<g>
</g>
</svg>
